<svg width="206" height="204" viewBox="0 0 206 204" fill="none" xmlns="http://www.w3.org/2000/svg">
<path d="M109.231 29L109.171 19.43L104.611 27.11H101.491L96.9308 19.76V29L90.4808 29V8L96.3008 8L103.141 19.19L109.801 8L115.621 8L115.681 29L109.231 29Z" fill="white"/>
<path d="M120.685 14.3762L127.268 15.9987L123.341 31.9319L116.758 30.3093L120.685 14.3762ZM124.293 13.9058C123.108 13.6138 122.224 13.0662 121.639 12.2629C121.078 11.445 120.918 10.5506 121.157 9.57965C121.396 8.60871 121.952 7.90108 122.823 7.45677C123.719 6.99783 124.76 6.91434 125.944 7.20631C127.148 7.50306 128.035 8.04098 128.605 8.82005C129.175 9.59913 129.343 10.4644 129.109 11.416C128.86 12.4257 128.295 13.1722 127.413 13.6553C126.537 14.1191 125.497 14.2026 124.293 13.9058Z" fill="white"/>
<path d="M146.369 23.6661C148.158 24.6048 149.309 25.8978 149.822 27.545C150.353 29.2016 150.047 31.1189 148.904 33.2971L144.554 41.585L138.55 38.4342L142.356 31.1823C143.23 29.5176 143.074 28.374 141.887 27.7512C141.214 27.398 140.54 27.349 139.864 27.6041C139.215 27.8507 138.625 28.4788 138.096 29.4882L134.513 36.3151L128.509 33.1642L136.135 18.6339L141.847 21.6314L141.094 23.0658C141.958 22.7965 142.836 22.7154 143.729 22.8224C144.621 22.9294 145.501 23.2107 146.369 23.6661Z" fill="white"/>
<path d="M156.376 51.3687C155.228 51.1265 153.995 50.4218 152.678 49.2547C150.956 47.7295 149.996 46.1441 149.797 44.4985C149.612 42.8379 150.255 41.1767 151.727 39.515L154.513 36.3713L152.828 34.8792L156.111 31.1741L157.795 32.6661L160.839 29.2305L165.914 33.7265L162.87 37.1621L165.385 39.3902L162.102 43.0953L159.587 40.8672L156.842 43.9661C156.511 44.3403 156.349 44.7185 156.358 45.1005C156.367 45.4825 156.529 45.8127 156.843 46.0912C157.277 46.4758 157.758 46.7017 158.287 46.769L156.376 51.3687Z" fill="white"/>
<path d="M189.769 79.7541L171.724 79.3789C169.418 79.3336 167.636 78.865 166.378 77.9732C165.12 77.0813 164.161 75.7658 163.501 74.0267C163.175 73.1665 162.976 72.2473 162.905 71.2691C162.822 70.3166 162.89 69.51 163.11 68.849L168.256 69.3039C168.133 69.714 168.072 70.1438 168.071 70.5932C168.077 71.0614 168.151 71.4824 168.293 71.8565C168.556 72.5484 168.96 72.994 169.506 73.1932L182.599 60.8481L185.067 67.3558L178.051 73.6425L187.493 73.7513L189.769 79.7541Z" fill="white"/>
<path d="M174.813 93.7374C174.594 91.9307 174.753 90.2593 175.292 88.7231C175.853 87.2044 176.719 85.9609 177.891 84.9926C179.083 84.0219 180.493 83.4377 182.121 83.24C183.749 83.0423 185.248 83.2734 186.617 83.9331C188.007 84.5904 189.145 85.5904 190.034 86.9332C190.924 88.2957 191.48 89.8804 191.699 91.6871C191.921 93.5137 191.761 95.1851 191.22 96.7014C190.681 98.2376 189.815 99.4811 188.621 100.432C187.449 101.4 186.049 101.983 184.421 102.181C182.793 102.379 181.284 102.149 179.895 101.491C178.528 100.852 177.389 99.8515 176.478 98.4914C175.59 97.1487 175.035 95.564 174.813 93.7374ZM180.054 93.101C180.148 93.8753 180.504 94.4769 181.12 94.9057C181.756 95.3322 182.58 95.4839 183.593 95.361C184.605 95.238 185.359 94.8946 185.855 94.3308C186.351 93.7669 186.551 93.0979 186.457 92.3235C186.363 91.5492 186.008 90.9476 185.392 90.5188C184.776 90.0899 183.962 89.937 182.949 90.0599C181.936 90.1829 181.172 90.5275 180.657 91.0937C180.161 91.6576 179.96 92.3267 180.054 93.101Z" fill="white"/>
<path d="M190.199 122.175L173.909 120.197L174.686 113.794L176.235 113.982C175.692 113.311 175.31 112.56 175.088 111.727C174.887 110.897 174.841 110.035 174.949 109.141C175.2 107.076 176.027 105.495 177.429 104.396C178.852 103.299 180.834 102.905 183.375 103.214L192.369 104.306L191.552 111.036L183.719 110.085C182.607 109.95 181.792 110.033 181.272 110.332C180.752 110.632 180.45 111.129 180.365 111.824C180.286 112.479 180.478 113.056 180.941 113.556C181.424 114.058 182.231 114.377 183.363 114.515L191.017 115.444L190.199 122.175Z" fill="white"/>
<path d="M184.134 134.115C184.999 135.726 185.016 137.626 184.186 139.814L178.576 137.686C178.842 137.209 179.057 136.756 179.22 136.326C180.043 134.157 179.351 132.654 177.144 131.817L170.328 129.232L172.732 122.892L188.076 128.711L185.789 134.742L184.134 134.115Z" fill="white"/>
<path d="M162.448 143.248C163.243 142.095 164.151 141.045 165.17 140.096C166.19 139.147 167.135 138.464 168.008 138.045L170.63 142.115C169.819 142.479 169.012 143.015 168.207 143.723C167.402 144.432 166.722 145.189 166.165 145.996C165.722 146.637 165.465 147.116 165.393 147.431C165.326 147.774 165.4 148.019 165.614 148.167C165.828 148.315 166.09 148.252 166.399 147.98C166.697 147.724 167.138 147.262 167.72 146.595C168.613 145.583 169.425 144.758 170.156 144.121C170.904 143.495 171.779 143.09 172.781 142.907C173.771 142.74 174.817 143.037 175.92 143.798C176.792 144.4 177.393 145.203 177.72 146.207C178.048 147.211 178.06 148.373 177.755 149.694C177.44 151.032 176.776 152.433 175.765 153.898C175.061 154.919 174.275 155.846 173.407 156.681C172.544 157.544 171.693 158.196 170.854 158.637L168.232 154.567C169.708 153.836 170.935 152.763 171.912 151.348C172.753 150.13 172.959 149.373 172.531 149.078C172.317 148.93 172.047 148.986 171.721 149.247C171.412 149.52 170.972 149.982 170.401 150.633C169.508 151.644 168.693 152.455 167.956 153.065C167.208 153.69 166.339 154.087 165.349 154.254C164.348 154.438 163.295 154.149 162.193 153.388C161.353 152.808 160.77 152.016 160.442 151.013C160.114 150.009 160.108 148.838 160.424 147.501C160.739 146.163 161.414 144.745 162.448 143.248Z" fill="white"/>
<path d="M95.9338 175L95.9938 184.57L100.554 176.89H103.674L108.234 184.24V175H114.684V196H108.864L102.024 184.81L95.3638 196H89.5438L89.4838 175H95.9338Z" fill="white"/>
<path d="M84.479 189.624L77.896 188.001L81.8232 172.068L88.4062 173.691L84.479 189.624ZM80.8716 190.094C82.0562 190.386 82.9408 190.934 83.5256 191.737C84.0861 192.555 84.2467 193.449 84.0074 194.42C83.7681 195.391 83.2126 196.099 82.341 196.543C81.4451 197.002 80.4049 197.086 79.2203 196.794C78.0164 196.497 77.1293 195.959 76.5592 195.18C75.9891 194.401 75.8213 193.536 76.0558 192.584C76.3047 191.574 76.8698 190.828 77.751 190.345C78.6274 189.881 79.6676 189.797 80.8716 190.094Z" fill="white"/>
<path d="M58.7954 180.334C57.0068 179.395 55.8558 178.102 55.3425 176.455C54.8115 174.798 55.1176 172.881 56.2609 170.703L60.6107 162.415L66.6141 165.566L62.808 172.818C61.9343 174.482 62.0907 175.626 63.2772 176.249C63.9502 176.602 64.6246 176.651 65.3006 176.396C65.9496 176.149 66.5389 175.521 67.0687 174.512L70.6517 167.685L76.6551 170.836L69.029 185.366L63.3178 182.369L64.0707 180.934C63.2066 181.203 62.3283 181.285 61.4358 181.178C60.5433 181.071 59.6632 180.789 58.7954 180.334Z" fill="white"/>
<path d="M48.7884 152.631C49.9365 152.874 51.1692 153.578 52.4866 154.745C54.2082 156.27 55.1683 157.856 55.367 159.502C55.5525 161.162 54.9091 162.823 53.437 164.485L50.6519 167.629L52.336 169.121L49.0536 172.826L47.3694 171.334L44.3257 174.77L39.2508 170.274L42.2945 166.838L39.7795 164.61L43.062 160.905L45.577 163.133L48.3223 160.034C48.6539 159.66 48.8152 159.282 48.8063 158.9C48.7973 158.518 48.6357 158.187 48.3213 157.909C47.8871 157.524 47.4059 157.298 46.8777 157.231L48.7884 152.631Z" fill="white"/>
<path d="M15.395 124.246L33.4407 124.621C35.7466 124.666 37.5286 125.135 38.7866 126.027C40.0446 126.919 41.0034 128.234 41.6629 129.973C41.9892 130.834 42.1881 131.753 42.2596 132.731C42.3427 133.683 42.2743 134.49 42.0544 135.151L36.9087 134.696C37.0313 134.286 37.0929 133.856 37.0935 133.407C37.0871 132.939 37.013 132.518 36.8711 132.144C36.6087 131.452 36.2044 131.006 35.6583 130.807L22.5651 143.152L20.097 136.644L27.1137 130.358L17.6715 130.249L15.395 124.246Z" fill="white"/>
<path d="M30.3515 110.263C30.5709 112.069 30.4112 113.741 29.8724 115.277C29.3114 116.796 28.445 118.039 27.2731 119.007C26.0814 119.978 24.6716 120.562 23.0435 120.76C21.4155 120.958 19.9167 120.727 18.5472 120.067C17.1579 119.41 16.019 118.41 15.1307 117.067C14.24 115.704 13.6849 114.12 13.4655 112.313C13.2437 110.486 13.4034 108.815 13.9446 107.299C14.4834 105.762 15.3498 104.519 16.5439 103.568C17.7157 102.6 19.1157 102.017 20.7437 101.819C22.3717 101.621 23.8804 101.851 25.2698 102.509C26.6369 103.148 27.7757 104.148 28.6863 105.509C29.5747 106.851 30.1297 108.436 30.3515 110.263ZM25.11 110.899C25.016 110.125 24.6609 109.523 24.0447 109.094C23.4087 108.668 22.5844 108.516 21.5718 108.639C20.5592 108.762 19.8051 109.105 19.3095 109.669C18.8138 110.233 18.613 110.902 18.707 111.676C18.801 112.451 19.1561 113.052 19.7723 113.481C20.3885 113.91 21.2029 114.063 22.2155 113.94C23.228 113.817 23.9921 113.473 24.5076 112.906C25.0032 112.342 25.204 111.673 25.11 110.899Z" fill="white"/>
<path d="M14.9652 81.8254L31.2556 83.8035L30.4781 90.2064L28.9295 90.0184C29.4726 90.6887 29.8548 91.4403 30.0761 92.273C30.2775 93.1034 30.3239 93.9652 30.2154 94.8587C29.9647 96.9235 29.138 98.5054 27.7353 99.6043C26.3128 100.701 24.3308 101.095 21.7895 100.786L12.7956 99.6942L13.6128 92.9636L21.4453 93.9147C22.5571 94.0497 23.373 93.9674 23.8929 93.6679C24.4128 93.3684 24.7149 92.8712 24.7993 92.1763C24.8788 91.5211 24.687 90.9438 24.2238 90.4443C23.7408 89.9424 22.9335 89.6228 21.8018 89.4853L14.148 88.556L14.9652 81.8254Z" fill="white"/>
<path d="M21.0308 69.8854C20.166 68.274 20.1485 66.3744 20.9783 64.1864L26.5883 66.3141C26.3221 66.7906 26.1074 67.2439 25.9442 67.674C25.1216 69.8433 25.8135 71.3463 28.0202 72.1832L34.8364 74.7683L32.4322 81.1077L17.0886 75.2886L19.3758 69.2577L21.0308 69.8854Z" fill="white"/>
<path d="M42.7163 60.7524C41.921 61.9045 41.0136 62.955 39.9942 63.9039C38.9747 64.8527 38.0289 65.5365 37.1567 65.9551L34.5345 61.8851C35.3448 61.5209 36.1524 60.9847 36.9571 60.2765C37.7619 59.5683 38.4426 58.811 38.9993 58.0044C39.4424 57.3625 39.6998 56.884 39.7715 56.569C39.838 56.2261 39.7643 55.9808 39.5503 55.8331C39.3364 55.6854 39.0746 55.7477 38.7651 56.0201C38.4669 56.2761 38.0267 56.7377 37.4445 57.4051C36.5517 58.4171 35.7395 59.2416 35.008 59.8789C34.26 60.5048 33.3853 60.9095 32.3837 61.0931C31.3935 61.2602 30.347 60.9631 29.2442 60.2019C28.3719 59.5997 27.7718 58.7967 27.4441 57.7928C27.1163 56.789 27.1046 55.6265 27.4088 54.3055C27.7245 52.9681 28.3879 51.5669 29.399 50.102C30.1034 49.0815 30.8895 48.1538 31.7574 47.3191C32.6201 46.4565 33.4711 45.8045 34.3104 45.3631L36.9325 49.4331C35.4561 50.1638 34.2294 51.2368 33.2523 52.6524C32.4116 53.8704 32.2052 54.6271 32.6332 54.9225C32.8471 55.0702 33.1171 55.0135 33.4431 54.7525C33.7526 54.4801 34.1928 54.0184 34.7636 53.3675C35.6565 52.3556 36.4713 51.5449 37.2079 50.9354C37.9558 50.3095 38.8249 49.913 39.8151 49.746C40.8166 49.5624 41.8688 49.8513 42.9716 50.6125C43.8111 51.1919 44.3946 51.9835 44.7224 52.9874C45.0501 53.9913 45.0562 55.162 44.7406 56.4994C44.4249 57.8369 43.7502 59.2545 42.7163 60.7524Z" fill="white"/>
<path d="M149.983 166.876L151.491 181.149L137.198 179.317L142.051 165.86L154.184 173.68L143.931 183.658L136.361 171.397L149.983 166.876Z" fill="white"/>
<path d="M64.983 20.8761L66.4906 35.1488L52.198 33.3174L57.0512 19.8597L69.1839 27.6804L58.9312 37.6575L51.3614 25.3966L64.983 20.8761Z" fill="white"/>
</svg>
