<svg width="32" height="32" viewBox="0 0 32 32" fill="none" xmlns="http://www.w3.org/2000/svg">
<g clip-path="url(#clip0_103_12)">
<path d="M12.0485 7V16.856H9.36233L5.67923 12.3786V16.856H2.49461V7H5.18077L8.86387 11.4774V7H12.0485ZM16.8906 9.50624V11.1958H20.9337V13.7021H16.8906V16.856H13.6229V7H21.5014V9.50624H16.8906ZM24.7059 9.57664H21.8674V7H30.812V9.57664H27.9736V16.856H24.7059V9.57664Z" fill="black"/>
<path d="M6.53771 23.9242H4.08232L3.64848 25.0693H1.43309L4.25771 18.4987H6.39925L9.22387 25.0693H6.97156L6.53771 23.9242ZM5.93771 22.3284L5.31001 20.6764L4.68232 22.3284H5.93771Z" fill="black"/>
<path d="M16.4333 23.4173H15.8426V25.0693H13.6641V18.4987H16.7749C17.3717 18.4987 17.8918 18.5988 18.3349 18.799C18.7779 18.9993 19.1195 19.2871 19.3595 19.6626C19.5995 20.0381 19.7195 20.4761 19.7195 20.9767C19.7195 21.4461 19.6148 21.856 19.4056 22.2064C19.1964 22.5568 18.8948 22.8353 18.501 23.0418L19.8579 25.0693H17.5318L16.4333 23.4173ZM17.5226 20.9767C17.5226 20.7327 17.4487 20.545 17.301 20.4135C17.1533 20.2758 16.9318 20.207 16.6364 20.207H15.8426V21.7464H16.6364C16.9318 21.7464 17.1533 21.6807 17.301 21.5493C17.4487 21.4116 17.5226 21.2208 17.5226 20.9767Z" fill="black"/>
<path d="M26.7363 20.2164H24.844V18.4987H30.8071V20.2164H28.9148V25.0693H26.7363V20.2164Z" fill="black"/>
</g>
<defs>
<clipPath id="clip0_103_12">
<rect width="30" height="18" fill="white" transform="translate(1 7)"/>
</clipPath>
</defs>
</svg>
