<svg width="26" height="26" viewBox="0 0 26 26" fill="none" xmlns="http://www.w3.org/2000/svg">
<path d="M23.111 20.9444H2.88873C2.69718 20.9444 2.51348 20.8684 2.37804 20.7329C2.24259 20.5975 2.1665 20.4138 2.1665 20.2222C2.1665 20.0307 2.24259 19.847 2.37804 19.7115C2.51348 19.5761 2.69718 19.5 2.88873 19.5H23.111C23.3025 19.5 23.4862 19.5761 23.6216 19.7115C23.7571 19.847 23.8332 20.0307 23.8332 20.2222C23.8332 20.4138 23.7571 20.5975 23.6216 20.7329C23.4862 20.8684 23.3025 20.9444 23.111 20.9444Z" fill="white"/>
<path d="M23.111 13.7222H2.88873C2.69718 13.7222 2.51348 13.6461 2.37804 13.5107C2.24259 13.3752 2.1665 13.1915 2.1665 13C2.1665 12.8084 2.24259 12.6247 2.37804 12.4893C2.51348 12.3539 2.69718 12.2778 2.88873 12.2778H23.111C23.3025 12.2778 23.4862 12.3539 23.6216 12.4893C23.7571 12.6247 23.8332 12.8084 23.8332 13C23.8332 13.1915 23.7571 13.3752 23.6216 13.5107C23.4862 13.6461 23.3025 13.7222 23.111 13.7222Z" fill="white"/>
<path d="M23.111 6.49999H2.88873C2.69718 6.49999 2.51348 6.4239 2.37804 6.28845C2.24259 6.15301 2.1665 5.96931 2.1665 5.77776C2.1665 5.58622 2.24259 5.40252 2.37804 5.26708C2.51348 5.13163 2.69718 5.05554 2.88873 5.05554H23.111C23.3025 5.05554 23.4862 5.13163 23.6216 5.26708C23.7571 5.40252 23.8332 5.58622 23.8332 5.77776C23.8332 5.96931 23.7571 6.15301 23.6216 6.28845C23.4862 6.4239 23.3025 6.49999 23.111 6.49999Z" fill="white"/>
</svg>
