<svg width="52" height="45" viewBox="0 0 52 45" fill="none" xmlns="http://www.w3.org/2000/svg">
<path d="M19.1507 9.20001V26H14.4947L8.11066 18.368V26H2.59066V9.20001H7.24666L13.6307 16.832V9.20001H19.1507ZM27.5437 13.472V16.352H34.5517V20.624H27.5437V26H21.8797V9.20001H35.5357V13.472H27.5437ZM41.0902 13.592H36.1702V9.20001H51.6742V13.592H46.7542V26H41.0902V13.592Z" fill="white"/>
<path d="M9.59869 38.048H5.34269L4.59069 40H0.750687L5.64669 28.8H9.35869L14.2547 40H10.3507L9.59869 38.048ZM8.55869 35.328L7.47069 32.512L6.38269 35.328H8.55869Z" fill="white"/>
<path d="M26.7511 37.184H25.7271V40H21.9511V28.8H27.3431C28.3777 28.8 29.2791 28.9707 30.0471 29.312C30.8151 29.6533 31.4071 30.144 31.8231 30.784C32.2391 31.424 32.4471 32.1707 32.4471 33.024C32.4471 33.824 32.2657 34.5227 31.9031 35.12C31.5404 35.7173 31.0177 36.192 30.3351 36.544L32.6871 40H28.6551L26.7511 37.184ZM28.6391 33.024C28.6391 32.608 28.5111 32.288 28.2551 32.064C27.9991 31.8293 27.6151 31.712 27.1031 31.712H25.7271V34.336H27.1031C27.6151 34.336 27.9991 34.224 28.2551 34C28.5111 33.7653 28.6391 33.44 28.6391 33.024Z" fill="white"/>
<path d="M44.6096 31.728H41.3296V28.8H51.6656V31.728H48.3856V40H44.6096V31.728Z" fill="white"/>
</svg>
