<svg width="256" height="256" viewBox="0 0 256 256" fill="none" xmlns="http://www.w3.org/2000/svg">
<g clip-path="url(#clip0_103_13)">
<path d="M96.3879 56V134.848H74.8986L45.4338 99.0285V134.848H19.9569V56H41.4461L70.9109 91.8195V56H96.3879ZM135.125 76.0499V89.5667H167.469V109.617H135.125V134.848H108.983V56H172.011V76.0499H135.125ZM197.647 76.6131H174.939V56H246.496V76.6131H223.789V134.848H197.647V76.6131Z" fill="black"/>
<path d="M52.3017 191.393H32.6586L29.1878 200.555H11.4647L34.0617 147.989H51.194L73.7909 200.555H55.7725L52.3017 191.393ZM47.5017 178.627L42.4801 165.411L37.4586 178.627H47.5017Z" fill="black"/>
<path d="M131.467 187.338H126.74V200.555H109.313V147.989H134.199C138.974 147.989 143.134 148.79 146.679 150.392C150.224 151.994 152.956 154.297 154.876 157.301C156.796 160.305 157.756 163.809 157.756 167.814C157.756 171.569 156.919 174.848 155.245 177.651C153.571 180.454 151.159 182.682 148.008 184.334L158.864 200.555H140.254L131.467 187.338ZM140.18 167.814C140.18 165.861 139.59 164.36 138.408 163.308C137.227 162.207 135.454 161.656 133.091 161.656H126.74V173.972H133.091C135.454 173.972 137.227 173.446 138.408 172.395C139.59 171.293 140.18 169.766 140.18 167.814Z" fill="black"/>
<path d="M213.89 161.731H198.752V147.989H246.457V161.731H231.318V200.555H213.89V161.731Z" fill="black"/>
</g>
<defs>
<clipPath id="clip0_103_13">
<rect width="240" height="144" fill="white" transform="translate(8 56)"/>
</clipPath>
</defs>
</svg>
