<svg xmlns="http://www.w3.org/2000/svg" viewBox="0 0 257.93 257.94"><defs><style>.cls-1{font-size:48px;fill:#fff;font-family:Impact;}</style></defs><g id="图层_2" data-name="图层 2"><g id="图层_1-2" data-name="图层 1"><text class="cls-1" transform="translate(164.9 49.7) rotate(33.12)">O</text><text class="cls-1" transform="translate(183.7 62.21) rotate(44.21)">t</text><text class="cls-1" transform="translate(192.46 70.48) rotate(52.16)">t</text><text class="cls-1" transform="translate(199.94 78.87) rotate(62.73)">a</text><text class="cls-1" transform="translate(209.33 97.92) rotate(71.7)"> </text><text class="cls-1" transform="translate(211.56 104.48) rotate(76.35)"> </text><text class="cls-1" transform="translate(214.34 108.75) rotate(88.03)">M</text><text class="cls-1" transform="translate(215.4 138) rotate(104.03)">e</text><text class="cls-1" transform="translate(210.81 157.86) rotate(116.98)">s</text><text class="cls-1" transform="matrix(-0.63, 0.77, -0.77, -0.63, 202.73, 174.66)">s</text><text class="cls-1" transform="matrix(-0.82, 0.57, -0.57, -0.82, 192.9, 189.4)">m</text><text class="cls-1" transform="translate(166.81 207.22) rotate(162.32)">e</text><text class="cls-1" transform="translate(146.98 213.54) rotate(173.76)">r</text><text class="cls-1" transform="translate(132.23 215.05) rotate(-179.07)"> </text><text class="cls-1" transform="translate(125.21 215.01) rotate(-174.77)"> </text><text class="cls-1" transform="translate(118.28 214.44) rotate(-170.14)"> </text><text class="cls-1" transform="translate(111.46 213.31) rotate(-165.5)"> </text><text class="cls-1" transform="matrix(-0.94, -0.33, 0.33, -0.94, 104.73, 211.64)"> </text><text class="cls-1" transform="translate(98.16 209.42) rotate(-156.2)"> </text><text class="cls-1" transform="matrix(-0.84, -0.55, 0.55, -0.84, 92.79, 208.13)">O</text><text class="cls-1" transform="translate(74.04 195.56) rotate(-135.62)">t</text><text class="cls-1" transform="translate(65.32 187.29) rotate(-127.69)">t</text><text class="cls-1" transform="translate(57.85 178.85) rotate(-117.1)">a</text><text class="cls-1" transform="translate(48.52 159.8) rotate(-108.14)"> </text><text class="cls-1" transform="translate(46.31 153.24) rotate(-103.49)"> </text><text class="cls-1" transform="matrix(-0.03, -1, 1, -0.03, 43.54, 148.95)">M</text><text class="cls-1" transform="translate(42.57 119.67) rotate(-75.79)">e</text><text class="cls-1" transform="translate(47.21 99.85) rotate(-62.86)">s</text><text class="cls-1" transform="matrix(0.64, -0.77, 0.77, 0.64, 55.33, 83.07)">s</text><text class="cls-1" transform="translate(65.21 68.35) rotate(-34.36)">m</text><text class="cls-1" transform="translate(91.35 50.61) rotate(-17.51)">e</text><text class="cls-1" transform="translate(111.2 44.35) rotate(-6.07)">r</text><text class="cls-1" transform="translate(126 42.89) rotate(0.93)"> </text><text class="cls-1" transform="translate(132.96 42.94) rotate(5.39)"> </text><text class="cls-1" transform="translate(139.88 43.53) rotate(10.02)"> </text><text class="cls-1" transform="matrix(0.97, 0.25, -0.25, 0.97, 146.71, 44.67)"> </text></g></g></svg>